PathFileType	4	(X/Y/Z)	/Users/itak/Documents/Research/Walk-IL/dataset/trc/00289_00010.trc
DataRate	CameraRate	NumFrames	NumMarkers	Units	OrigDataRate	OrigDataStartFrame	OrigNumFrames
100.000000	100.000000	4	53	mm	100.000000	496	662
Frame#	Time	RPSI			LPSI			L3			STRN			T10			C7			CLAV			RBAK			LBAK			LSHO			LUPA			LAEL			LAOL			LWTS			LWPS			LFRA			LIFD			LHPS			LHTS			RSHO			RUPA			RAEL			RAOL			RWTS			RWPS			RFRA			RIFD			RHTS			RHPS			RBHD			LFHD			RFHD			LBHD			LHIP			RHIP			RASI			LASI			LKNE			LTHI			LANK			LTIP			LTOE			LMT1			LMT5			LHEE			RKNE			RTHI			RANK			RTIP			RTOE			RMT1			RMT5			RHEE			
		X1	Y1	Z1	X2	Y2	Z2	X3	Y3	Z3	X4	Y4	Z4	X5	Y5	Z5	X6	Y6	Z6	X7	Y7	Z7	X8	Y8	Z8	X9	Y9	Z9	X10	Y10	Z10	X11	Y11	Z11	X12	Y12	Z12	X13	Y13	Z13	X14	Y14	Z14	X15	Y15	Z15	X16	Y16	Z16	X17	Y17	Z17	X18	Y18	Z18	X19	Y19	Z19	X20	Y20	Z20	X21	Y21	Z21	X22	Y22	Z22	X23	Y23	Z23	X24	Y24	Z24	X25	Y25	Z25	X26	Y26	Z26	X27	Y27	Z27	X28	Y28	Z28	X29	Y29	Z29	X30	Y30	Z30	X31	Y31	Z31	X32	Y32	Z32	X33	Y33	Z33	X34	Y34	Z34	X35	Y35	Z35	X36	Y36	Z36	X37	Y37	Z37	X38	Y38	Z38	X39	Y39	Z39	X40	Y40	Z40	X41	Y41	Z41	X42	Y42	Z42	X43	Y43	Z43	X44	Y44	Z44	X45	Y45	Z45	X46	Y46	Z46	X47	Y47	Z47	X48	Y48	Z48	X49	Y49	Z49	X50	Y50	Z50	X51	Y51	Z51	X52	Y52	Z52	X53	Y53	Z53	

497	4.96	612.0816650390625	981.2725219726562	252.4006042480469	784.1279907226562	971.7271118164062	283.1690979003906	706.6666259765625	1044.50341796875	282.6752319335938	657.3909301757812	1231.899658203125	522.8373413085938	717.517578125	1162.431030273438	264.2955627441406	721.261474609375	1409.50634765625	306.0183715820312	673.85595703125	1330.28076171875	458.3836059570312	665.0193481445312	1267.218383789062	237.1736450195312	825.294921875	1375.182373046875	320.5854187011719	849.8126220703125	1384.106323242188	421.9830932617188	928.629638671875	1268.338623046875	416.6189575195312	943.3699951171875	1066.061889648438	430.7689208984375	904.1602783203125	1049.535034179688	352.9501037597656	878.3142700195312	848.3104858398438	505.4844055175781	947.1838989257812	836.4459838867188	491.0003662109375	949.2223510742188	963.4725341796875	451.5050048828125	881.0045776367188	663.2734985351562	510.3065795898438	943.54150390625	747.6463012695312	495.05419921875	889.1758422851562	749.7240600585938	531.9800415039062	552.4691772460938	1385.653686523438	320.0085144042969	491.9637145996094	1328.807739257812	290.5877685546875	455.9150085449219	1067.522094726562	240.4006958007812	550.8649291992188	1060.344970703125	241.8110046386719	467.3713989257812	859.3577880859375	373.5695495605469	412.8874816894531	846.761474609375	309.3600463867188	435.4044494628906	1001.427917480469	261.8929748535156	462.831787109375	674.4401245117188	402.1802673339844	441.3052673339844	746.916259765625	409.3021850585938	408.8326721191406	738.23291015625	344.7880859375	648.0894165039062	1575.469604492188	318.9458312988281	661.35546875	1586.848266601562	532.197265625	580.8875122070312	1579.788208007812	481.8075866699219	773.0675659179688	1576.16650390625	396.3450622558594	866.6326293945312	924.4523315429688	367.3172607421875	494.8363037109375	933.6539916992188	337.6257019042969	549.29541015625	937.6737670898438	465.0325012207031	799.1767578125	936.694091796875	496.3035278320312	862.29931640625	476.78564453125	531.6583862304688	873.2627563476562	614.1138305664062	490.4371337890625	936.653076171875	202.4463653564453	185.0725402832031	909.2592163085938	325.2073669433594	370.7359008789062	851.6378173828125	35.18904495239258	282.3526306152344	823.8873901367188	84.99609375	226.412841796875	933.0301513671875	96.82312774658203	247.7435607910156	884.2553100585938	237.9567413330078	146.8695678710938	592.6488647460938	466.403564453125	451.0310974121094	510.3016052246094	722.2526245117188	425.4430236816406	690.333740234375	38.49134063720703	397.5009765625	626.1675415039062	344.1879272460938	467.8146057128906	740.0291137695312	37.00683975219727	595.368408203125	780.0200805664062	32.07001876831055	536.3837890625	668.3440551757812	31.68380165100098	502.6685180664062	738.7476196289062	30.40752983093262	347.9720458984375	
498	4.97	614.1836547851562	981.7163696289062	258.8417358398438	785.6585083007812	972.1494140625	292.9081115722656	707.4594116210938	1045.045654296875	290.8179321289062	655.5103759765625	1232.764282226562	530.2418823242188	718.2056274414062	1163.067626953125	272.388427734375	721.9736328125	1410.302856445312	314.4087219238281	673.0459594726562	1331.07861328125	465.9510192871094	665.7496337890625	1268.341674804688	244.7364349365234	825.6787109375	1375.530517578125	329.6867370605469	849.6370239257812	1384.387817382812	431.2424621582031	928.4103393554688	1268.490600585938	425.5064392089844	942.61083984375	1066.158081054688	437.1031188964844	902.302001953125	1050.259765625	360.0874328613281	879.8444213867188	845.6171264648438	507.3425598144531	948.5565795898438	834.6878051757812	491.0835266113281	949.3983764648438	962.7305297851562	455.353759765625	885.0603637695312	660.5178833007812	508.0461730957031	945.86669921875	745.9589233398438	493.094482421875	892.557861328125	746.5949096679688	531.49560546875	553.0025634765625	1386.8544921875	326.8318786621094	492.45166015625	1329.949096679688	297.3592834472656	454.0103149414062	1068.402221679688	249.5492706298828	549.033203125	1060.724365234375	249.7710723876953	466.1128540039062	862.9742431640625	386.5978088378906	410.2627563476562	849.76806640625	324.2573852539062	433.3155212402344	1002.982177734375	272.761474609375	460.4029235839844	678.9005126953125	419.7554016113281	439.7379150390625	751.8336181640625	425.9476013183594	405.7051086425781	742.1248779296875	362.1244506835938	648.6522216796875	1576.348999023438	327.2560424804688	660.5540161132812	1587.170776367188	540.5867919921875	580.3768310546875	1580.290771484375	489.7284240722656	773.1728515625	1576.726196289062	405.450927734375	866.5344848632812	925.2777709960938	378.797119140625	495.9808044433594	934.9105224609375	340.7249450683594	546.8739013671875	938.2576293945312	470.1476745605469	796.1533813476562	937.8709106445312	506.4674682617188	857.1976928710938	480.1937255859375	551.4569091796875	870.1076049804688	616.77001953125	507.6141052246094	941.8775024414062	196.8204498291016	214.2483062744141	908.9518432617188	324.9254455566406	395.7518310546875	856.2604370117188	34.8338737487793	319.0185241699219	829.2155151367188	80.65565490722656	259.4261169433594	937.5689697265625	95.22933959960938	282.5974426269531	890.3351440429688	229.8792419433594	172.8349151611328	592.3754272460938	466.1193237304688	452.5462951660156	509.6732788085938	721.6998901367188	427.8894958496094	690.3723754882812	38.69379425048828	397.4595031738281	626.1116943359375	343.8356628417969	468.9168701171875	740.0929565429688	36.89314651489258	595.4526977539062	780.084228515625	31.94140434265137	536.4251708984375	668.44970703125	31.76169967651367	502.6899108886719	739.0390625	30.49113845825195	348.0696716308594	
499	4.98	616.3685913085938	982.06787109375	265.2687377929688	787.1844482421875	972.550048828125	302.7242126464844	708.2274169921875	1045.451416015625	298.9396057128906	653.506103515625	1233.574951171875	537.5367431640625	718.849365234375	1163.646850585938	280.3833923339844	722.6585693359375	1410.9921875	322.7043151855469	672.1600341796875	1331.82177734375	473.4243469238281	666.4317016601562	1269.38671875	252.2865447998047	826.0239868164062	1375.770141601562	338.7370300292969	849.3993530273438	1384.55908203125	440.4524536132812	928.1837158203125	1268.5634765625	434.3056030273438	942.116943359375	1066.163330078125	443.1539611816406	900.5758056640625	1050.911499023438	367.075927734375	881.6990966796875	843.2442016601562	509.3478698730469	950.1217041015625	833.1404418945312	491.0738830566406	949.792236328125	962.0684204101562	458.9726257324219	889.006103515625	658.2014770507812	506.3113403320312	948.1644287109375	744.5250244140625	491.1841735839844	896.1627197265625	743.8932495117188	531.2661743164062	553.5214233398438	1388.031372070312	333.5567016601562	492.9326782226562	1331.070556640625	304.0044555664062	452.1194458007812	1069.284790039062	258.6017150878906	547.2119140625	1061.057739257812	257.7748107910156	464.5239868164062	866.6041259765625	399.5392150878906	407.5566101074219	852.906982421875	338.8674926757812	431.2120361328125	1004.577514648438	283.4548950195312	457.6798706054688	683.5466918945312	437.0713195800781	437.8768920898438	756.9102783203125	442.3282165527344	402.4908752441406	746.197509765625	379.1382751464844	649.2493286132812	1577.165893554688	335.5050964355469	659.7117309570312	1587.427490234375	548.905029296875	579.8456420898438	1580.751342773438	497.5617370605469	773.2745971679688	1577.189819335938	414.5205993652344	866.3682250976562	926.0298461914062	390.2530517578125	497.4301147460938	936.2119750976562	343.3886108398438	544.4724731445312	938.8077392578125	475.0521240234375	793.0247192382812	938.9881591796875	516.5863647460938	851.5625610351562	483.5716552734375	570.5667114257812	866.536865234375	619.4163208007812	524.475830078125	946.6292114257812	190.4034729003906	244.1910400390625	908.12255859375	324.3505554199219	420.6501770019531	859.4815063476562	34.61920166015625	356.356201171875	833.517578125	76.15194702148438	293.1636047363281	941.0180053710938	93.31566619873047	318.2055053710938	896.211669921875	220.8402099609375	199.5088653564453	592.077880859375	465.8518676757812	454.1792602539062	509.1519165039062	721.1932373046875	430.2237243652344	690.37548828125	38.91727447509766	397.4229736328125	626.0848388671875	343.5277709960938	470.2456359863281	740.1676635742188	36.76168060302734	595.542724609375	780.1546020507812	31.78729629516602	536.4570922851562	668.5703125	31.84766960144043	502.7200317382812	739.2987060546875	30.61076354980469	348.1800231933594	
500	4.99	618.64501953125	982.3438720703125	271.7037353515625	788.7077026367188	972.951416015625	312.6435546875	708.9891967773438	1045.7333984375	307.0566711425781	651.3992309570312	1234.33447265625	544.7462768554688	719.4380493164062	1164.180541992188	288.2882995605469	723.3026123046875	1411.58544921875	330.9088439941406	671.2060546875	1332.4990234375	480.8172912597656	667.07666015625	1270.369262695312	259.7869262695312	826.321533203125	1375.909790039062	347.7377319335938	849.0890502929688	1384.621948242188	449.6141662597656	927.944091796875	1268.561157226562	443.022216796875	941.8922119140625	1066.08984375	448.9933471679688	899.04248046875	1051.492919921875	373.9032897949219	883.7955322265625	841.1723022460938	511.5204162597656	951.8223266601562	831.8013916015625	491.1344909667969	950.3739013671875	961.4940185546875	462.4683837890625	892.74365234375	656.2635498046875	505.048583984375	950.3876342773438	743.3187866210938	489.4584350585938	899.8214111328125	741.5658569335938	531.2728881835938	554.0093383789062	1389.173828125	340.2064514160156	493.3949279785156	1332.165649414062	310.5417175292969	450.2639770507812	1070.166015625	267.529296875	545.4149169921875	1061.342041015625	265.8213195800781	462.6460266113281	870.2901000976562	412.4140930175781	404.7973327636719	856.1629028320312	353.1529846191406	429.1255798339844	1006.212890625	293.9407958984375	454.6728210449219	688.3833618164062	454.1521911621094	435.7194519042969	762.15283203125	458.4258728027344	399.1979370117188	750.4417114257812	395.8022155761719	649.8661499023438	1577.92626953125	343.6972961425781	658.8326416015625	1587.616577148438	557.158447265625	579.2947998046875	1581.17138671875	505.311279296875	773.3634643554688	1577.5595703125	423.5516967773438	866.10400390625	926.7255249023438	401.7166748046875	499.0169067382812	937.363037109375	345.794677734375	542.105712890625	939.3403930664062	479.767578125	789.7920532226562	940.0719604492188	526.6763305664062	845.4580688476562	486.8865661621094	588.9450073242188	862.5656127929688	622.0281372070312	540.977783203125	950.748046875	183.3351135253906	274.8625183105469	906.7493896484375	323.4722290039062	445.3989562988281	861.2166748046875	34.56245422363281	394.118896484375	836.66748046875	71.53955078125	327.4747009277344	943.2733764648438	91.18016052246094	354.4085998535156	901.6958618164062	210.9706726074219	226.9241790771484	591.7755737304688	465.6030883789062	455.9874267578125	508.8023986816406	720.810302734375	432.6172485351562	690.3704833984375	39.14879989624023	397.4073181152344	626.0797729492188	343.2517700195312	471.8064575195312	740.2495727539062	36.61232757568359	595.6346435546875	780.2282104492188	31.60928153991699	536.47900390625	668.7037353515625	31.93678665161133	502.7604370117188	739.5256958007812	30.76694297790527	348.2963562011719	
